<svg width="435" height="435" xmlns="http://www.w3.org/2000/svg">
 <defs>
  <style>.cls-1{fill:#15a089;}.cls-2{fill:none;stroke:#000;stroke-miterlimit:10;stroke-width:6px;}</style>
 </defs>
 <title>Etusivukota</title>
 <g>
  <title>background</title>
  <rect fill="none" id="canvas_background" height="437" width="437" y="-1" x="-1"/>
 </g>
 <g>
  <title>Layer 1</title>
  <ellipse stroke="#000000" ry="210" rx="210" id="svg_13" cy="217.5" cx="217.5" stroke-width="10" fill="#52cbdb"/>
  <g id="Icons">
   <path id="svg_1" d="m356.919984,300.080002s0.5,41.67 -88.5,83.67l-6.56,-16.94l1,-0.39c27.74,-36.88 55.61,-31.87 55.61,-31.87l-56.13,-54.91c57.41,-11.39 65.59,-22 65.59,-22l28.99,42.44z" class="cls-1"/>
   <path id="svg_2" d="m314.539984,238.080002l13.39,19.58s-8.18,10.59 -65.59,22l-22.47,-22c62.34,-8.91 74.67,-19.58 74.67,-19.58z" class="cls-1"/>
   <path id="svg_3" d="m262.339984,279.640002l56.13,54.91s-27.87,-5 -55.61,31.87l-1,0.39l-54.65,-141.06l32.62,31.91l22.51,21.98z"/>
   <path id="svg_4" d="m207.069984,80.820002l107.47,157.26s-12.29,10.67 -74.67,19.58l-32.66,-31.91l-7.47,31.91c-83.08,-2.41 -86,-10.82 -86,-10.82l93.33,-166.02z" class="cls-1"/>
   <path id="svg_5" d="m199.779984,257.660002l-6.58,28.08c-86.31,-10.13 -90.85,-18.64 -90.85,-18.64l11.39,-20.26s2.96,8.41 86.04,10.82z" class="cls-1"/>
   <path id="svg_6" d="m193.209984,285.740002l-22.95,98c-89,-42 -92.67,-72.59 -92.67,-72.59l24.77,-44.06s4.53,8.52 90.85,18.65z" class="cls-1"/>
   <path id="svg_7" d="m223.689984,51.250002l-16.62,29.57l-93.33,166l-11.39,20.26l-24.77,44.06s3.67,30.59 92.67,72.59l22.95,-98l6.58,-28.08l7.47,-31.91l54.61,141.06l6.56,16.94c89,-42 88.5,-83.67 88.5,-83.67l-29,-42.42l-13.39,-19.58l-107.47,-157.26l-19.27,-28.2" class="cls-2"/>
   <path id="svg_8" d="m262.859984,366.420002c27.74,-36.88 55.61,-31.87 55.61,-31.87l-56.13,-54.91l-22.47,-22l-32.66,-31.89" class="cls-2"/>
   <path id="svg_9" d="m199.779984,257.660002c-83.08,-2.41 -86,-10.82 -86,-10.82" class="cls-2"/>
   <path id="svg_10" d="m193.209984,285.740002c-86.31,-10.13 -90.85,-18.64 -90.85,-18.64" class="cls-2"/>
   <path id="svg_11" d="m239.869984,257.660002c62.38,-8.91 74.67,-19.58 74.67,-19.58" class="cls-2"/>
   <path id="svg_12" d="m262.339984,279.640002c57.41,-11.39 65.59,-22 65.59,-22" class="cls-2"/>
  </g>
 </g>
</svg>