<svg width="434.99999999999994" height="434.99999999999994" xmlns="http://www.w3.org/2000/svg">

 <g>
  <title>background</title>
  <rect fill="none" id="canvas_background" height="437" width="437" y="-1" x="-1"/>
 </g>
 <g>
  <title>Layer 1</title>
  <ellipse ry="210" rx="210" id="svg_22" cy="218" cx="217.5" stroke-opacity="null" stroke-width="10" stroke="#000000" fill="#52cbdb"/>
  <path stroke="null" id="svg_3" d="m181.07998,181.406216c0,-30.824996 -25.078415,-55.903411 -55.904005,-55.903411c-30.825589,0 -55.904598,25.079008 -55.904598,55.903411c0,9.033307 2.156154,17.571321 5.976136,25.130614l49.927869,102.960363l49.934987,-102.975785c3.816422,-7.55514 5.969611,-16.087816 5.969611,-25.115192zm-55.904005,30.937697c-17.058827,0 -30.938291,-13.878277 -30.938291,-30.937104c0,-17.058234 13.879464,-30.937104 30.938291,-30.937104c17.058234,0 30.936511,13.87887 30.936511,30.937104c0,17.058234 -13.87887,30.937104 -30.936511,30.937104z"/>
  <path stroke="null" id="svg_4" d="m331.775874,127.086555c-18.722654,0 -33.952754,15.231879 -33.952754,33.953347c0,5.486181 1.309115,10.671628 3.629576,15.262724l30.323179,62.532621l30.327924,-62.542112c2.316902,-4.589316 3.62483,-9.771797 3.62483,-15.253826c0,-18.720875 -15.231286,-33.952754 -33.952754,-33.952754zm0,52.743029c-10.36081,0 -18.791461,-8.429465 -18.791461,-18.789682c0,-10.360217 8.430652,-18.789682 18.791461,-18.789682c10.359624,0 18.789089,8.429465 18.789089,18.789682c0,10.360217 -8.429465,18.789682 -18.789089,18.789682z"/>
  <polygon stroke="null" id="svg_5" points="217.65866088867188,221.70643615722656 211.85752868652344,221.6043701171875 208.9474639892578,227.6368865966797 184.0540771484375,279.2398681640625 147.93927764892578,278.4497375488281 132.8847427368164,309.4971618652344 192.94271850585938,308.18450927734375 203.56214904785156,307.95196533203125 206.31739807128906,299.07763671875 224.56605529785156,240.3104248046875 325.10984802246094,238.55169677734375 317.79029846191406,223.45802307128906 "/>
  <g id="svg_6"/>
  <g id="svg_7"/>
  <g id="svg_8"/>
  <g id="svg_9"/>
  <g id="svg_10"/>
  <g id="svg_11"/>
  <g id="svg_12"/>
  <g id="svg_13"/>
  <g id="svg_14"/>
  <g id="svg_15"/>
  <g id="svg_16"/>
  <g id="svg_17"/>
  <g id="svg_18"/>
  <g id="svg_19"/>
  <g id="svg_20"/>
 </g>
</svg>